<svg xmlns="http://www.w3.org/2000/svg" viewBox="0 0 27.56 27.56"><title>icon-subscribe</title><g id="Layer_2" data-name="Layer 2"><g id="HEADER"><path d="M.57,13.21l.57.57-.57.57L0,13.78Zm3.3-3.3.57.57-.57.57-.57-.57Zm0,6.6.57.57-.57.57-.57-.57ZM7.2,6.6l.57.55-.57.57-.57-.57Zm0,13.23.57.57L7.2,21l-.57-.55Zm6.66,0-.54-.55,5.12-5.15H7.67v-.7H18.46L13.31,8.27l.54-.55,6,6ZM10.5,3.28l.57.6-.57.57-.6-.57Zm0,19.84.57.57-.57.6-.6-.6ZM13.78,0l.57.57-.57.57L13.21.57Zm0,26.42.57.57-.57.57L13.21,27Zm3.3-23.14.6.6-.57.57-.6-.57Zm0,19.84.57.57-.6.6-.57-.6ZM20.41,6.6l.57.57-.57.57-.57-.57Zm0,13.21.57.57-.57.57-.57-.57Zm3.3-9.91.57.57-.57.57-.57-.57Zm0,6.6.57.57-.57.57-.57-.57ZM27,13.21l.57.57-.57.57-.54-.57Z"/></g></g></svg>